<svg width="1000" height="1224" viewBox="0 0 1000 1224" fill="none" xmlns="http://www.w3.org/2000/svg">
<g filter="url(#filter0_d_20_11)">
<path d="M181.367 1196.41C174.711 1196.41 168.524 1195.26 162.807 1192.95C157.09 1190.56 152.055 1187.28 147.703 1183.1C143.436 1178.91 140.108 1174.01 137.719 1168.38C135.33 1162.74 134.135 1156.69 134.135 1150.2C134.135 1143.63 135.33 1137.57 137.719 1132.02C140.108 1126.39 143.436 1121.49 147.703 1117.3C152.055 1113.12 157.09 1109.88 162.807 1107.58C168.524 1105.19 174.711 1103.99 181.367 1103.99C186.146 1103.99 190.796 1104.72 195.319 1106.17C199.927 1107.53 204.151 1109.54 207.991 1112.18C211.916 1114.74 215.159 1117.82 217.719 1121.4L202.871 1135.48C199.97 1131.47 196.727 1128.48 193.143 1126.52C189.559 1124.56 185.634 1123.58 181.367 1123.58C177.868 1123.58 174.626 1124.26 171.639 1125.62C168.738 1126.9 166.178 1128.78 163.959 1131.26C161.74 1133.65 159.991 1136.46 158.711 1139.7C157.516 1142.86 156.919 1146.36 156.919 1150.2C156.919 1154.04 157.516 1157.58 158.711 1160.82C159.991 1163.98 161.74 1166.8 163.959 1169.27C166.178 1171.66 168.738 1173.54 171.639 1174.9C174.626 1176.18 177.868 1176.82 181.367 1176.82C185.634 1176.82 189.559 1175.84 193.143 1173.88C196.727 1171.83 199.97 1168.85 202.871 1164.92L217.719 1179C215.159 1182.5 211.916 1185.57 207.991 1188.22C204.151 1190.86 199.927 1192.91 195.319 1194.36C190.796 1195.73 186.146 1196.41 181.367 1196.41ZM258.305 1196.28C251.734 1196.28 245.846 1194.79 240.641 1191.8C235.436 1188.81 231.297 1184.76 228.225 1179.64C225.238 1174.43 223.745 1168.59 223.745 1162.1C223.745 1155.62 225.238 1149.82 228.225 1144.7C231.297 1139.49 235.436 1135.39 240.641 1132.41C245.846 1129.42 251.692 1127.93 258.177 1127.93C264.748 1127.93 270.593 1129.42 275.713 1132.41C280.918 1135.39 285.014 1139.49 288.001 1144.7C291.073 1149.82 292.609 1155.62 292.609 1162.1C292.609 1168.59 291.073 1174.43 288.001 1179.64C285.014 1184.76 280.918 1188.81 275.713 1191.8C270.593 1194.79 264.79 1196.28 258.305 1196.28ZM258.177 1179C260.993 1179 263.468 1178.27 265.601 1176.82C267.734 1175.37 269.398 1173.37 270.593 1170.81C271.788 1168.25 272.385 1165.35 272.385 1162.1C272.385 1158.78 271.788 1155.87 270.593 1153.4C269.398 1150.84 267.734 1148.83 265.601 1147.38C263.468 1145.93 260.993 1145.21 258.177 1145.21C255.446 1145.21 252.972 1145.93 250.753 1147.38C248.62 1148.83 246.956 1150.84 245.761 1153.4C244.566 1155.87 243.969 1158.78 243.969 1162.1C243.969 1165.35 244.566 1168.25 245.761 1170.81C246.956 1173.37 248.62 1175.37 250.753 1176.82C252.972 1178.27 255.446 1179 258.177 1179ZM313.542 1195V1144.95H299.846V1128.95H313.542V1120.25C313.542 1112.4 315.803 1106.38 320.326 1102.2C324.849 1098.02 331.377 1095.93 339.91 1095.93C341.702 1095.93 343.622 1096.06 345.67 1096.31C347.803 1096.48 349.553 1096.78 350.918 1097.21V1114.23C349.041 1113.89 347.547 1113.68 346.438 1113.59C345.329 1113.51 344.177 1113.46 342.982 1113.46C340.081 1113.46 337.905 1114.06 336.454 1115.26C335.003 1116.37 334.278 1118.16 334.278 1120.63V1128.95H350.918V1144.95H334.278V1195H313.542ZM372.417 1195V1144.95H358.721V1128.95H372.417V1120.25C372.417 1112.4 374.678 1106.38 379.201 1102.2C383.724 1098.02 390.252 1095.93 398.785 1095.93C400.577 1095.93 402.497 1096.06 404.545 1096.31C406.678 1096.48 408.428 1096.78 409.793 1097.21V1114.23C407.916 1113.89 406.422 1113.68 405.313 1113.59C404.204 1113.51 403.052 1113.46 401.857 1113.46C398.956 1113.46 396.78 1114.06 395.329 1115.26C393.878 1116.37 393.153 1118.16 393.153 1120.63V1128.95H409.793V1144.95H393.153V1195H372.417ZM450.811 1196.28C444.326 1196.28 438.438 1194.79 433.147 1191.8C427.942 1188.73 423.76 1184.63 420.603 1179.51C417.531 1174.31 415.995 1168.5 415.995 1162.1C415.995 1155.62 417.446 1149.82 420.347 1144.7C423.248 1139.58 427.216 1135.52 432.251 1132.54C437.286 1129.46 442.96 1127.93 449.275 1127.93C455.675 1127.93 461.307 1129.42 466.171 1132.41C471.035 1135.39 474.832 1139.53 477.563 1144.82C480.379 1150.03 481.787 1156.05 481.787 1162.87V1167.35H436.347C437.03 1169.83 438.096 1172 439.547 1173.88C440.998 1175.76 442.79 1177.21 444.923 1178.23C447.056 1179.26 449.36 1179.77 451.835 1179.77C454.566 1179.77 457.04 1179.3 459.259 1178.36C461.563 1177.42 463.44 1176.06 464.891 1174.26L478.587 1185.66C474.32 1189.41 470.011 1192.14 465.659 1193.85C461.307 1195.47 456.358 1196.28 450.811 1196.28ZM436.347 1155.58H462.587C461.99 1153.19 461.051 1151.14 459.771 1149.43C458.491 1147.73 456.955 1146.4 455.163 1145.46C453.371 1144.53 451.366 1144.06 449.147 1144.06C447.014 1144.06 445.051 1144.53 443.259 1145.46C441.552 1146.32 440.102 1147.6 438.907 1149.3C437.798 1151.01 436.944 1153.1 436.347 1155.58ZM527.186 1196.28C520.701 1196.28 514.813 1194.79 509.522 1191.8C504.317 1188.73 500.135 1184.63 496.978 1179.51C493.906 1174.31 492.37 1168.5 492.37 1162.1C492.37 1155.62 493.821 1149.82 496.722 1144.7C499.623 1139.58 503.591 1135.52 508.626 1132.54C513.661 1129.46 519.335 1127.93 525.65 1127.93C532.05 1127.93 537.682 1129.42 542.546 1132.41C547.41 1135.39 551.207 1139.53 553.938 1144.82C556.754 1150.03 558.162 1156.05 558.162 1162.87V1167.35H512.722C513.405 1169.83 514.471 1172 515.922 1173.88C517.373 1175.76 519.165 1177.21 521.298 1178.23C523.431 1179.26 525.735 1179.77 528.21 1179.77C530.941 1179.77 533.415 1179.3 535.634 1178.36C537.938 1177.42 539.815 1176.06 541.266 1174.26L554.962 1185.66C550.695 1189.41 546.386 1192.14 542.034 1193.85C537.682 1195.47 532.733 1196.28 527.186 1196.28ZM512.722 1155.58H538.962C538.365 1153.19 537.426 1151.14 536.146 1149.43C534.866 1147.73 533.33 1146.4 531.538 1145.46C529.746 1144.53 527.741 1144.06 525.522 1144.06C523.389 1144.06 521.426 1144.53 519.634 1145.46C517.927 1146.32 516.477 1147.6 515.282 1149.3C514.173 1151.01 513.319 1153.1 512.722 1155.58ZM571.704 1195V1105.4H593.72V1140.22H629.944V1105.4H651.96V1195H629.944V1159.54H593.72V1195H571.704ZM690.065 1196.02C685.798 1196.02 682.001 1195.09 678.673 1193.21C675.43 1191.25 672.87 1188.6 670.993 1185.27C669.116 1181.86 668.177 1177.93 668.177 1173.5V1128.95H688.913V1167.48C688.913 1171.15 689.894 1174.14 691.857 1176.44C693.905 1178.66 696.593 1179.77 699.921 1179.77C702.14 1179.77 704.145 1179.34 705.937 1178.49C707.814 1177.55 709.478 1176.14 710.929 1174.26V1128.95H731.665V1195H710.929V1184.25C708.369 1188.09 705.297 1191.03 701.713 1193.08C698.214 1195.04 694.332 1196.02 690.065 1196.02ZM747.814 1195V1128.95H768.55V1139.7C771.11 1135.86 774.139 1132.96 777.638 1131C781.222 1128.95 785.147 1127.93 789.414 1127.93C793.681 1127.93 797.435 1128.91 800.678 1130.87C804.006 1132.75 806.609 1135.39 808.486 1138.81C810.363 1142.14 811.302 1146.02 811.302 1150.46V1195H790.566V1156.47C790.566 1152.72 789.542 1149.73 787.494 1147.51C785.531 1145.29 782.886 1144.18 779.558 1144.18C777.339 1144.18 775.291 1144.65 773.414 1145.59C771.622 1146.45 770.001 1147.81 768.55 1149.69V1195H747.814ZM857.448 1196.28C849.683 1196.28 843.795 1194.49 839.784 1190.9C835.773 1187.32 833.768 1182.03 833.768 1175.03V1144.95H820.968V1128.95H833.768V1110.65L854.504 1106.42V1128.95H872.168V1144.95H854.504V1170.94C854.504 1173.84 855.144 1175.89 856.424 1177.08C857.789 1178.27 860.051 1178.87 863.208 1178.87C864.403 1178.87 865.597 1178.79 866.792 1178.62C867.987 1178.45 869.608 1178.06 871.656 1177.46V1194.23C869.779 1194.83 867.475 1195.3 864.744 1195.64C862.013 1196.07 859.581 1196.28 857.448 1196.28Z" fill="#632B00"/>
<path d="M162.807 1192.95L162.229 1194.34L162.237 1194.34L162.246 1194.34L162.807 1192.95ZM147.703 1183.1L146.653 1184.17L146.658 1184.17L146.664 1184.18L147.703 1183.1ZM137.719 1168.38L139.1 1167.79L137.719 1168.38ZM137.719 1132.02L139.097 1132.62L139.1 1132.61L137.719 1132.02ZM147.703 1117.3L146.664 1116.22L146.658 1116.23L146.653 1116.23L147.703 1117.3ZM162.807 1107.58L163.368 1108.97L163.377 1108.96L163.385 1108.96L162.807 1107.58ZM195.319 1106.17L194.861 1107.6L194.877 1107.6L194.893 1107.61L195.319 1106.17ZM207.991 1112.18L207.14 1113.42L207.156 1113.43L207.172 1113.44L207.991 1112.18ZM217.719 1121.4L218.751 1122.49L219.698 1121.59L218.94 1120.53L217.719 1121.4ZM202.871 1135.48L201.656 1136.36L202.66 1137.75L203.903 1136.57L202.871 1135.48ZM193.143 1126.52L193.863 1125.2L193.143 1126.52ZM171.639 1125.62L172.244 1127L172.254 1126.99L172.263 1126.99L171.639 1125.62ZM163.959 1131.26L165.058 1132.28L165.067 1132.27L165.076 1132.26L163.959 1131.26ZM158.711 1139.7L157.316 1139.15L157.312 1139.16L157.308 1139.17L158.711 1139.7ZM158.711 1160.82L157.303 1161.34L157.312 1161.37L157.321 1161.39L158.711 1160.82ZM163.959 1169.27L162.842 1170.27L162.851 1170.28L162.86 1170.29L163.959 1169.27ZM171.639 1174.9L171 1176.26L171.024 1176.27L171.048 1176.28L171.639 1174.9ZM193.143 1173.88L193.863 1175.2L193.875 1175.19L193.887 1175.18L193.143 1173.88ZM202.871 1164.92L203.903 1163.83L202.673 1162.66L201.665 1164.03L202.871 1164.92ZM217.719 1179L218.93 1179.89L219.709 1178.82L218.751 1177.91L217.719 1179ZM207.991 1188.22L207.153 1186.97L207.146 1186.98L207.14 1186.98L207.991 1188.22ZM195.319 1194.36L195.753 1195.8L195.761 1195.79L195.769 1195.79L195.319 1194.36ZM181.367 1194.91C174.888 1194.91 168.893 1193.79 163.368 1191.56L162.246 1194.34C168.156 1196.72 174.534 1197.91 181.367 1197.91V1194.91ZM163.385 1191.57C157.834 1189.25 152.957 1186.06 148.742 1182.01L146.664 1184.18C151.153 1188.49 156.345 1191.88 162.229 1194.34L163.385 1191.57ZM148.753 1182.02C144.631 1177.99 141.414 1173.24 139.1 1167.79L136.338 1168.96C138.803 1174.77 142.242 1179.84 146.653 1184.17L148.753 1182.02ZM139.1 1167.79C136.794 1162.35 135.635 1156.5 135.635 1150.2H132.635C132.635 1156.87 133.866 1163.13 136.338 1168.96L139.1 1167.79ZM135.635 1150.2C135.635 1143.82 136.795 1137.96 139.097 1132.62L136.341 1131.43C133.864 1137.18 132.635 1143.44 132.635 1150.2H135.635ZM139.1 1132.61C141.414 1127.16 144.631 1122.41 148.753 1118.38L146.653 1116.23C142.242 1120.56 138.803 1125.63 136.338 1131.44L139.1 1132.61ZM148.742 1118.39C152.953 1114.34 157.824 1111.2 163.368 1108.97L162.246 1106.18C156.355 1108.56 151.157 1111.91 146.664 1116.22L148.742 1118.39ZM163.385 1108.96C168.906 1106.65 174.895 1105.49 181.367 1105.49V1102.49C174.527 1102.49 168.142 1103.72 162.229 1106.19L163.385 1108.96ZM181.367 1105.49C185.991 1105.49 190.487 1106.19 194.861 1107.6L195.777 1104.74C191.105 1103.24 186.3 1102.49 181.367 1102.49V1105.49ZM194.893 1107.61C199.354 1108.93 203.434 1110.87 207.14 1113.42L208.842 1110.95C204.868 1108.21 200.5 1106.14 195.745 1104.73L194.893 1107.61ZM207.172 1113.44C210.951 1115.9 214.054 1118.85 216.498 1122.27L218.94 1120.53C216.264 1116.78 212.882 1113.58 208.81 1110.93L207.172 1113.44ZM216.687 1120.31L201.839 1134.39L203.903 1136.57L218.751 1122.49L216.687 1120.31ZM204.086 1134.6C201.082 1130.45 197.68 1127.29 193.863 1125.2L192.423 1127.84C195.774 1129.67 198.858 1132.49 201.656 1136.36L204.086 1134.6ZM193.863 1125.2C190.049 1123.12 185.874 1122.08 181.367 1122.08V1125.08C185.393 1125.08 189.069 1126 192.423 1127.84L193.863 1125.2ZM181.367 1122.08C177.667 1122.08 174.21 1122.8 171.015 1124.26L172.263 1126.99C175.041 1125.72 178.069 1125.08 181.367 1125.08V1122.08ZM171.034 1124.25C167.928 1125.62 165.196 1127.63 162.842 1130.25L165.076 1132.26C167.159 1129.93 169.547 1128.19 172.244 1127L171.034 1124.25ZM162.86 1130.24C160.505 1132.77 158.66 1135.75 157.316 1139.15L160.106 1140.25C161.322 1137.17 162.975 1134.52 165.058 1132.28L162.86 1130.24ZM157.308 1139.17C156.041 1142.52 155.419 1146.2 155.419 1150.2H158.419C158.419 1146.52 158.992 1143.2 160.114 1140.23L157.308 1139.17ZM155.419 1150.2C155.419 1154.2 156.041 1157.92 157.303 1161.34L160.119 1160.31C158.991 1157.25 158.419 1153.88 158.419 1150.2H155.419ZM157.321 1161.39C158.664 1164.7 160.505 1167.67 162.842 1170.27L165.076 1168.27C162.976 1165.93 161.318 1163.26 160.101 1160.26L157.321 1161.39ZM162.86 1170.29C165.207 1172.82 167.922 1174.81 171 1176.26L172.278 1173.55C169.553 1172.26 167.149 1170.5 165.058 1168.25L162.86 1170.29ZM171.048 1176.28C174.235 1177.65 177.681 1178.32 181.367 1178.32V1175.32C178.056 1175.32 175.016 1174.72 172.23 1173.53L171.048 1176.28ZM181.367 1178.32C185.874 1178.32 190.049 1177.28 193.863 1175.2L192.423 1172.56C189.069 1174.4 185.393 1175.32 181.367 1175.32V1178.32ZM193.887 1175.18C197.682 1173.01 201.074 1169.87 204.077 1165.81L201.665 1164.03C198.865 1167.82 195.772 1170.65 192.399 1172.58L193.887 1175.18ZM201.839 1166.01L216.687 1180.09L218.751 1177.91L203.903 1163.83L201.839 1166.01ZM216.508 1178.11C214.06 1181.46 210.947 1184.41 207.153 1186.97L208.829 1189.46C212.885 1186.73 216.258 1183.54 218.93 1179.89L216.508 1178.11ZM207.14 1186.98C203.427 1189.54 199.339 1191.52 194.869 1192.93L195.769 1195.79C200.515 1194.3 204.875 1192.18 208.842 1189.45L207.14 1186.98ZM194.885 1192.92C190.505 1194.25 186.001 1194.91 181.367 1194.91V1197.91C186.291 1197.91 191.088 1197.2 195.753 1195.8L194.885 1192.92ZM240.641 1191.8L239.895 1193.1L240.641 1191.8ZM228.225 1179.64L226.924 1180.39L226.931 1180.4L226.939 1180.41L228.225 1179.64ZM228.225 1144.7L226.933 1143.93L226.929 1143.94L228.225 1144.7ZM240.641 1132.41L241.388 1133.71L240.641 1132.41ZM275.713 1132.41L274.957 1133.7L274.966 1133.71L275.713 1132.41ZM288.001 1144.7L286.7 1145.44L286.707 1145.46L286.715 1145.47L288.001 1144.7ZM288.001 1179.64L286.709 1178.88L286.705 1178.88L288.001 1179.64ZM275.713 1191.8L274.966 1190.5L274.957 1190.5L275.713 1191.8ZM270.593 1153.4L269.234 1154.03L269.238 1154.04L269.242 1154.05L270.593 1153.4ZM265.601 1147.38L264.758 1148.62L265.601 1147.38ZM250.753 1147.38L249.932 1146.13L249.921 1146.14L249.91 1146.14L250.753 1147.38ZM245.761 1153.4L247.112 1154.05L247.116 1154.04L247.12 1154.03L245.761 1153.4ZM250.753 1176.82L249.91 1178.06L249.921 1178.07L249.932 1178.08L250.753 1176.82ZM258.305 1194.78C251.971 1194.78 246.344 1193.34 241.388 1190.5L239.895 1193.1C245.348 1196.23 251.498 1197.78 258.305 1197.78V1194.78ZM241.388 1190.5C236.403 1187.64 232.451 1183.77 229.511 1178.87L226.939 1180.41C230.143 1185.75 234.468 1189.99 239.895 1193.1L241.388 1190.5ZM229.526 1178.89C226.68 1173.93 225.245 1168.35 225.245 1162.1H222.245C222.245 1168.83 223.796 1174.94 226.924 1180.39L229.526 1178.89ZM225.245 1162.1C225.245 1155.86 226.68 1150.32 229.521 1145.45L226.929 1143.94C223.796 1149.31 222.245 1155.38 222.245 1162.1H225.245ZM229.517 1145.46C232.458 1140.48 236.409 1136.57 241.388 1133.71L239.895 1131.11C234.462 1134.22 230.136 1138.51 226.933 1143.93L229.517 1145.46ZM241.388 1133.71C246.347 1130.86 251.932 1129.43 258.177 1129.43V1126.43C251.452 1126.43 245.345 1127.98 239.895 1131.11L241.388 1133.71ZM258.177 1129.43C264.512 1129.43 270.091 1130.86 274.957 1133.7L276.469 1131.11C271.095 1127.98 264.984 1126.43 258.177 1126.43V1129.43ZM274.966 1133.71C279.941 1136.56 283.846 1140.47 286.7 1145.44L289.302 1143.95C286.183 1138.51 281.896 1134.23 276.46 1131.11L274.966 1133.71ZM286.715 1145.47C289.635 1150.33 291.109 1155.87 291.109 1162.1H294.109C294.109 1155.37 292.511 1149.3 289.287 1143.92L286.715 1145.47ZM291.109 1162.1C291.109 1168.34 289.635 1173.92 286.709 1178.88L289.293 1180.4C292.511 1174.95 294.109 1168.84 294.109 1162.1H291.109ZM286.705 1178.88C283.853 1183.77 279.947 1187.64 274.966 1190.5L276.46 1193.1C281.889 1189.99 286.176 1185.75 289.297 1180.4L286.705 1178.88ZM274.957 1190.5C270.088 1193.34 264.55 1194.78 258.305 1194.78V1197.78C265.03 1197.78 271.098 1196.23 276.469 1193.1L274.957 1190.5ZM258.177 1180.5C261.265 1180.5 264.04 1179.7 266.444 1178.06L264.758 1175.58C262.896 1176.85 260.721 1177.5 258.177 1177.5V1180.5ZM266.444 1178.06C268.822 1176.45 270.655 1174.22 271.952 1171.44L269.234 1170.17C268.142 1172.51 266.647 1174.3 264.758 1175.58L266.444 1178.06ZM271.952 1171.44C273.252 1168.66 273.885 1165.53 273.885 1162.1H270.885C270.885 1165.16 270.323 1167.84 269.234 1170.17L271.952 1171.44ZM273.885 1162.1C273.885 1158.6 273.255 1155.46 271.944 1152.75L269.242 1154.05C270.32 1156.29 270.885 1158.95 270.885 1162.1H273.885ZM271.952 1152.77C270.655 1149.98 268.822 1147.76 266.444 1146.14L264.758 1148.62C266.647 1149.91 268.142 1151.7 269.234 1154.03L271.952 1152.77ZM266.444 1146.14C264.04 1144.51 261.265 1143.71 258.177 1143.71V1146.71C260.721 1146.71 262.896 1147.36 264.758 1148.62L266.444 1146.14ZM258.177 1143.71C255.164 1143.71 252.402 1144.51 249.932 1146.13L251.574 1148.64C253.541 1147.35 255.729 1146.71 258.177 1146.71V1143.71ZM249.91 1146.14C247.532 1147.76 245.699 1149.98 244.402 1152.77L247.12 1154.03C248.212 1151.7 249.707 1149.91 251.596 1148.62L249.91 1146.14ZM244.41 1152.75C243.099 1155.46 242.469 1158.6 242.469 1162.1H245.469C245.469 1158.95 246.034 1156.29 247.112 1154.05L244.41 1152.75ZM242.469 1162.1C242.469 1165.53 243.102 1168.66 244.402 1171.44L247.12 1170.17C246.031 1167.84 245.469 1165.16 245.469 1162.1H242.469ZM244.402 1171.44C245.699 1174.22 247.532 1176.45 249.91 1178.06L251.596 1175.58C249.707 1174.3 248.212 1172.51 247.12 1170.17L244.402 1171.44ZM249.932 1178.08C252.402 1179.69 255.164 1180.5 258.177 1180.5V1177.5C255.729 1177.5 253.541 1176.85 251.574 1175.57L249.932 1178.08ZM313.542 1195H312.042V1196.5H313.542V1195ZM313.542 1144.95H315.042V1143.45H313.542V1144.95ZM299.846 1144.95H298.346V1146.45H299.846V1144.95ZM299.846 1128.95V1127.45H298.346V1128.95H299.846ZM313.542 1128.95V1130.45H315.042V1128.95H313.542ZM320.326 1102.2L321.344 1103.3L320.326 1102.2ZM345.67 1096.31L345.484 1097.8L345.517 1097.8L345.55 1097.81L345.67 1096.31ZM350.918 1097.21H352.418V1096.11L351.365 1095.78L350.918 1097.21ZM350.918 1114.23L350.65 1115.71L352.418 1116.03V1114.23H350.918ZM346.438 1113.59L346.553 1112.1L346.438 1113.59ZM336.454 1115.26L337.365 1116.45L337.387 1116.43L337.408 1116.41L336.454 1115.26ZM334.278 1128.95H332.778V1130.45H334.278V1128.95ZM350.918 1128.95H352.418V1127.45H350.918V1128.95ZM350.918 1144.95V1146.45H352.418V1144.95H350.918ZM334.278 1144.95V1143.45H332.778V1144.95H334.278ZM334.278 1195V1196.5H335.778V1195H334.278ZM315.042 1195V1144.95H312.042V1195H315.042ZM313.542 1143.45H299.846V1146.45H313.542V1143.45ZM301.346 1144.95V1128.95H298.346V1144.95H301.346ZM299.846 1130.45H313.542V1127.45H299.846V1130.45ZM315.042 1128.95V1120.25H312.042V1128.95H315.042ZM315.042 1120.25C315.042 1112.69 317.208 1107.13 321.344 1103.3L319.308 1101.1C314.399 1105.64 312.042 1112.1 312.042 1120.25H315.042ZM321.344 1103.3C325.498 1099.46 331.608 1097.43 339.91 1097.43V1094.43C331.146 1094.43 324.199 1096.58 319.308 1101.1L321.344 1103.3ZM339.91 1097.43C341.631 1097.43 343.489 1097.55 345.484 1097.8L345.856 1094.82C343.755 1094.56 341.773 1094.43 339.91 1094.43V1097.43ZM345.55 1097.81C347.622 1097.97 349.25 1098.26 350.471 1098.64L351.365 1095.78C349.855 1095.3 347.985 1094.99 345.79 1094.82L345.55 1097.81ZM349.418 1097.21V1114.23H352.418V1097.21H349.418ZM351.186 1112.76C349.289 1112.41 347.737 1112.19 346.553 1112.1L346.323 1115.09C347.357 1115.17 348.793 1115.37 350.65 1115.71L351.186 1112.76ZM346.553 1112.1C345.403 1112.01 344.212 1111.96 342.982 1111.96V1114.96C344.141 1114.96 345.255 1115.01 346.323 1115.09L346.553 1112.1ZM342.982 1111.96C339.913 1111.96 337.332 1112.59 335.5 1114.1L337.408 1116.41C338.478 1115.53 340.249 1114.96 342.982 1114.96V1111.96ZM335.543 1114.06C333.599 1115.55 332.778 1117.87 332.778 1120.63H335.778C335.778 1118.45 336.407 1117.18 337.365 1116.45L335.543 1114.06ZM332.778 1120.63V1128.95H335.778V1120.63H332.778ZM334.278 1130.45H350.918V1127.45H334.278V1130.45ZM349.418 1128.95V1144.95H352.418V1128.95H349.418ZM350.918 1143.45H334.278V1146.45H350.918V1143.45ZM332.778 1144.95V1195H335.778V1144.95H332.778ZM334.278 1193.5H313.542V1196.5H334.278V1193.5ZM372.417 1195H370.917V1196.5H372.417V1195ZM372.417 1144.95H373.917V1143.45H372.417V1144.95ZM358.721 1144.95H357.221V1146.45H358.721V1144.95ZM358.721 1128.95V1127.45H357.221V1128.95H358.721ZM372.417 1128.95V1130.45H373.917V1128.95H372.417ZM379.201 1102.2L380.219 1103.3L379.201 1102.2ZM404.545 1096.31L404.359 1097.8L404.392 1097.8L404.425 1097.81L404.545 1096.31ZM409.793 1097.21H411.293V1096.11L410.24 1095.78L409.793 1097.21ZM409.793 1114.23L409.525 1115.71L411.293 1116.03V1114.23H409.793ZM405.313 1113.59L405.428 1112.1L405.313 1113.59ZM395.329 1115.26L396.24 1116.45L396.262 1116.43L396.283 1116.41L395.329 1115.26ZM393.153 1128.95H391.653V1130.45H393.153V1128.95ZM409.793 1128.95H411.293V1127.45H409.793V1128.95ZM409.793 1144.95V1146.45H411.293V1144.95H409.793ZM393.153 1144.95V1143.45H391.653V1144.95H393.153ZM393.153 1195V1196.5H394.653V1195H393.153ZM373.917 1195V1144.95H370.917V1195H373.917ZM372.417 1143.45H358.721V1146.45H372.417V1143.45ZM360.221 1144.95V1128.95H357.221V1144.95H360.221ZM358.721 1130.45H372.417V1127.45H358.721V1130.45ZM373.917 1128.95V1120.25H370.917V1128.95H373.917ZM373.917 1120.25C373.917 1112.69 376.083 1107.13 380.219 1103.3L378.183 1101.1C373.274 1105.64 370.917 1112.1 370.917 1120.25H373.917ZM380.219 1103.3C384.373 1099.46 390.483 1097.43 398.785 1097.43V1094.43C390.021 1094.43 383.074 1096.58 378.183 1101.1L380.219 1103.3ZM398.785 1097.43C400.506 1097.43 402.364 1097.55 404.359 1097.8L404.731 1094.82C402.63 1094.56 400.648 1094.43 398.785 1094.43V1097.43ZM404.425 1097.81C406.497 1097.97 408.125 1098.26 409.346 1098.64L410.24 1095.78C408.73 1095.3 406.86 1094.99 404.665 1094.82L404.425 1097.81ZM408.293 1097.21V1114.23H411.293V1097.21H408.293ZM410.061 1112.76C408.164 1112.41 406.612 1112.19 405.428 1112.1L405.198 1115.09C406.232 1115.17 407.668 1115.37 409.525 1115.71L410.061 1112.76ZM405.428 1112.1C404.278 1112.01 403.087 1111.96 401.857 1111.96V1114.96C403.016 1114.96 404.13 1115.01 405.198 1115.09L405.428 1112.1ZM401.857 1111.96C398.788 1111.96 396.207 1112.59 394.375 1114.1L396.283 1116.41C397.353 1115.53 399.124 1114.96 401.857 1114.96V1111.96ZM394.418 1114.06C392.474 1115.55 391.653 1117.87 391.653 1120.63H394.653C394.653 1118.45 395.282 1117.18 396.24 1116.45L394.418 1114.06ZM391.653 1120.63V1128.95H394.653V1120.63H391.653ZM393.153 1130.45H409.793V1127.45H393.153V1130.45ZM408.293 1128.95V1144.95H411.293V1128.95H408.293ZM409.793 1143.45H393.153V1146.45H409.793V1143.45ZM391.653 1144.95V1195H394.653V1144.95H391.653ZM393.153 1193.5H372.417V1196.5H393.153V1193.5ZM433.147 1191.8L432.385 1193.09L432.397 1193.1L432.41 1193.11L433.147 1191.8ZM420.603 1179.51L419.311 1180.27L419.319 1180.29L419.326 1180.3L420.603 1179.51ZM420.347 1144.7L419.042 1143.96L420.347 1144.7ZM432.251 1132.54L433.016 1133.83L433.024 1133.82L433.032 1133.82L432.251 1132.54ZM466.171 1132.41L465.386 1133.69L466.171 1132.41ZM477.563 1144.82L476.23 1145.51L476.237 1145.52L476.244 1145.54L477.563 1144.82ZM481.787 1167.35V1168.85H483.287V1167.35H481.787ZM436.347 1167.35V1165.85H434.377L434.901 1167.75L436.347 1167.35ZM439.547 1173.88L438.36 1174.8L439.547 1173.88ZM444.923 1178.23L445.572 1176.88L444.923 1178.23ZM459.259 1178.36L458.693 1176.97L458.684 1176.97L458.675 1176.98L459.259 1178.36ZM464.891 1174.26L465.85 1173.11L464.682 1172.14L463.725 1173.32L464.891 1174.26ZM478.587 1185.66L479.578 1186.78L480.894 1185.62L479.546 1184.5L478.587 1185.66ZM465.659 1193.85L466.183 1195.25L466.195 1195.25L466.207 1195.24L465.659 1193.85ZM436.347 1155.58L434.889 1155.22L434.442 1157.08H436.347V1155.58ZM462.587 1155.58V1157.08H464.508L464.042 1155.21L462.587 1155.58ZM459.771 1149.43L460.971 1148.53L459.771 1149.43ZM443.259 1145.46L443.93 1146.81L443.942 1146.8L443.955 1146.79L443.259 1145.46ZM438.907 1149.3L437.678 1148.44L437.663 1148.46L437.649 1148.49L438.907 1149.3ZM450.811 1194.78C444.566 1194.78 438.935 1193.34 433.884 1190.49L432.41 1193.11C437.94 1196.23 444.085 1197.78 450.811 1197.78V1194.78ZM433.909 1190.51C428.913 1187.56 424.909 1183.64 421.88 1178.72L419.326 1180.3C422.612 1185.63 426.97 1189.9 432.385 1193.09L433.909 1190.51ZM421.895 1178.75C418.967 1173.79 417.495 1168.25 417.495 1162.1H414.495C414.495 1168.76 416.095 1174.82 419.311 1180.27L421.895 1178.75ZM417.495 1162.1C417.495 1155.85 418.891 1150.31 421.652 1145.44L419.042 1143.96C416 1149.32 414.495 1155.39 414.495 1162.1H417.495ZM421.652 1145.44C424.425 1140.54 428.208 1136.68 433.016 1133.83L431.486 1131.25C426.225 1134.37 422.071 1138.61 419.042 1143.96L421.652 1145.44ZM433.032 1133.82C437.815 1130.9 443.216 1129.43 449.275 1129.43V1126.43C442.705 1126.43 436.756 1128.03 431.47 1131.26L433.032 1133.82ZM449.275 1129.43C455.432 1129.43 460.786 1130.86 465.386 1133.69L466.956 1131.13C461.828 1127.98 455.918 1126.43 449.275 1126.43V1129.43ZM465.386 1133.69C470.007 1136.52 473.619 1140.45 476.23 1145.51L478.896 1144.14C476.045 1138.61 472.063 1134.27 466.956 1131.13L465.386 1133.69ZM476.244 1145.54C478.924 1150.49 480.287 1156.26 480.287 1162.87H483.287C483.287 1155.83 481.834 1149.57 478.882 1144.11L476.244 1145.54ZM480.287 1162.87V1167.35H483.287V1162.87H480.287ZM481.787 1165.85H436.347V1168.85H481.787V1165.85ZM434.901 1167.75C435.631 1170.4 436.781 1172.75 438.36 1174.8L440.734 1172.96C439.412 1171.25 438.428 1169.26 437.793 1166.95L434.901 1167.75ZM438.36 1174.8C439.953 1176.86 441.929 1178.46 444.274 1179.58L445.572 1176.88C443.65 1175.96 442.042 1174.66 440.734 1172.96L438.36 1174.8ZM444.274 1179.58C446.619 1180.71 449.146 1181.27 451.835 1181.27V1178.27C449.574 1178.27 447.494 1177.8 445.572 1176.88L444.274 1179.58ZM451.835 1181.27C454.74 1181.27 457.417 1180.77 459.843 1179.74L458.675 1176.98C456.664 1177.83 454.392 1178.27 451.835 1178.27V1181.27ZM459.825 1179.75C462.344 1178.72 464.435 1177.21 466.057 1175.21L463.725 1173.32C462.446 1174.9 460.782 1176.12 458.693 1176.97L459.825 1179.75ZM463.932 1175.42L477.628 1186.81L479.546 1184.5L465.85 1173.11L463.932 1175.42ZM477.596 1184.53C473.433 1188.19 469.27 1190.82 465.111 1192.45L466.207 1195.24C470.752 1193.46 475.208 1190.63 479.578 1186.78L477.596 1184.53ZM465.135 1192.44C460.98 1193.99 456.213 1194.78 450.811 1194.78V1197.78C456.503 1197.78 461.634 1196.95 466.183 1195.25L465.135 1192.44ZM436.347 1157.08H462.587V1154.08H436.347V1157.08ZM464.042 1155.21C463.404 1152.66 462.388 1150.42 460.971 1148.53L458.571 1150.33C459.714 1151.86 460.576 1153.71 461.132 1155.94L464.042 1155.21ZM460.971 1148.53C459.565 1146.66 457.86 1145.18 455.859 1144.14L454.467 1146.79C456.05 1147.62 457.418 1148.79 458.571 1150.33L460.971 1148.53ZM455.859 1144.14C453.832 1143.07 451.584 1142.56 449.147 1142.56V1145.56C451.147 1145.56 452.91 1145.98 454.467 1146.79L455.859 1144.14ZM449.147 1142.56C446.785 1142.56 444.582 1143.08 442.563 1144.14L443.955 1146.79C445.521 1145.97 447.242 1145.56 449.147 1145.56V1142.56ZM442.588 1144.12C440.638 1145.1 439.002 1146.55 437.678 1148.44L440.136 1150.16C441.201 1148.64 442.466 1147.54 443.93 1146.81L442.588 1144.12ZM437.649 1148.49C436.427 1150.37 435.517 1152.62 434.889 1155.22L437.805 1155.93C438.372 1153.58 439.168 1151.65 440.165 1150.12L437.649 1148.49ZM509.522 1191.8L508.76 1193.09L508.772 1193.1L508.785 1193.11L509.522 1191.8ZM496.978 1179.51L495.686 1180.27L495.694 1180.29L495.701 1180.3L496.978 1179.51ZM496.722 1144.7L495.417 1143.96L496.722 1144.7ZM508.626 1132.54L509.391 1133.83L509.399 1133.82L509.407 1133.82L508.626 1132.54ZM542.546 1132.41L541.761 1133.69L542.546 1132.41ZM553.938 1144.82L552.605 1145.51L552.612 1145.52L552.619 1145.54L553.938 1144.82ZM558.162 1167.35V1168.85H559.662V1167.35H558.162ZM512.722 1167.35V1165.85H510.752L511.276 1167.75L512.722 1167.35ZM515.922 1173.88L514.735 1174.8L515.922 1173.88ZM521.298 1178.23L521.947 1176.88L521.298 1178.23ZM535.634 1178.36L535.068 1176.97L535.059 1176.97L535.05 1176.98L535.634 1178.36ZM541.266 1174.26L542.225 1173.11L541.057 1172.14L540.1 1173.32L541.266 1174.26ZM554.962 1185.66L555.953 1186.78L557.269 1185.62L555.921 1184.5L554.962 1185.66ZM542.034 1193.85L542.558 1195.25L542.57 1195.25L542.582 1195.24L542.034 1193.85ZM512.722 1155.58L511.264 1155.22L510.817 1157.08H512.722V1155.58ZM538.962 1155.58V1157.08H540.883L540.417 1155.21L538.962 1155.58ZM536.146 1149.43L537.346 1148.53L536.146 1149.43ZM519.634 1145.46L520.305 1146.81L520.317 1146.8L520.33 1146.79L519.634 1145.46ZM515.282 1149.3L514.053 1148.44L514.038 1148.46L514.024 1148.49L515.282 1149.3ZM527.186 1194.78C520.941 1194.78 515.31 1193.34 510.259 1190.49L508.785 1193.11C514.315 1196.23 520.46 1197.78 527.186 1197.78V1194.78ZM510.284 1190.51C505.288 1187.56 501.284 1183.64 498.255 1178.72L495.701 1180.3C498.987 1185.63 503.345 1189.9 508.76 1193.09L510.284 1190.51ZM498.27 1178.75C495.342 1173.79 493.87 1168.25 493.87 1162.1H490.87C490.87 1168.76 492.47 1174.82 495.686 1180.27L498.27 1178.75ZM493.87 1162.1C493.87 1155.85 495.266 1150.31 498.027 1145.44L495.417 1143.96C492.375 1149.32 490.87 1155.39 490.87 1162.1H493.87ZM498.027 1145.44C500.8 1140.54 504.583 1136.68 509.391 1133.83L507.861 1131.25C502.6 1134.37 498.446 1138.61 495.417 1143.96L498.027 1145.44ZM509.407 1133.82C514.19 1130.9 519.591 1129.43 525.65 1129.43V1126.43C519.08 1126.43 513.131 1128.03 507.845 1131.26L509.407 1133.82ZM525.65 1129.43C531.807 1129.43 537.161 1130.86 541.761 1133.69L543.331 1131.13C538.203 1127.98 532.293 1126.43 525.65 1126.43V1129.43ZM541.761 1133.69C546.382 1136.52 549.994 1140.45 552.605 1145.51L555.271 1144.14C552.42 1138.61 548.438 1134.27 543.331 1131.13L541.761 1133.69ZM552.619 1145.54C555.299 1150.49 556.662 1156.26 556.662 1162.87H559.662C559.662 1155.83 558.209 1149.57 555.257 1144.11L552.619 1145.54ZM556.662 1162.87V1167.35H559.662V1162.87H556.662ZM558.162 1165.85H512.722V1168.85H558.162V1165.85ZM511.276 1167.75C512.006 1170.4 513.156 1172.75 514.735 1174.8L517.109 1172.96C515.787 1171.25 514.803 1169.26 514.168 1166.95L511.276 1167.75ZM514.735 1174.8C516.328 1176.86 518.304 1178.46 520.649 1179.58L521.947 1176.88C520.025 1175.96 518.417 1174.66 517.109 1172.96L514.735 1174.8ZM520.649 1179.58C522.994 1180.71 525.521 1181.27 528.21 1181.27V1178.27C525.949 1178.27 523.869 1177.8 521.947 1176.88L520.649 1179.58ZM528.21 1181.27C531.115 1181.27 533.792 1180.77 536.218 1179.74L535.05 1176.98C533.039 1177.83 530.767 1178.27 528.21 1178.27V1181.27ZM536.2 1179.75C538.719 1178.72 540.81 1177.21 542.432 1175.21L540.1 1173.32C538.821 1174.9 537.157 1176.12 535.068 1176.97L536.2 1179.75ZM540.307 1175.42L554.003 1186.81L555.921 1184.5L542.225 1173.11L540.307 1175.42ZM553.971 1184.53C549.808 1188.19 545.645 1190.82 541.486 1192.45L542.582 1195.24C547.127 1193.46 551.583 1190.63 555.953 1186.78L553.971 1184.53ZM541.51 1192.44C537.355 1193.99 532.588 1194.78 527.186 1194.78V1197.78C532.878 1197.78 538.009 1196.95 542.558 1195.25L541.51 1192.44ZM512.722 1157.08H538.962V1154.08H512.722V1157.08ZM540.417 1155.21C539.779 1152.66 538.763 1150.42 537.346 1148.53L534.946 1150.33C536.089 1151.86 536.951 1153.71 537.507 1155.94L540.417 1155.21ZM537.346 1148.53C535.94 1146.66 534.235 1145.18 532.234 1144.14L530.842 1146.79C532.425 1147.62 533.793 1148.79 534.946 1150.33L537.346 1148.53ZM532.234 1144.14C530.207 1143.07 527.959 1142.56 525.522 1142.56V1145.56C527.522 1145.56 529.285 1145.98 530.842 1146.79L532.234 1144.14ZM525.522 1142.56C523.16 1142.56 520.957 1143.08 518.938 1144.14L520.33 1146.79C521.896 1145.97 523.617 1145.56 525.522 1145.56V1142.56ZM518.963 1144.12C517.013 1145.1 515.377 1146.55 514.053 1148.44L516.511 1150.16C517.576 1148.64 518.841 1147.54 520.305 1146.81L518.963 1144.12ZM514.024 1148.49C512.802 1150.37 511.892 1152.62 511.264 1155.22L514.18 1155.93C514.747 1153.58 515.543 1151.65 516.54 1150.12L514.024 1148.49ZM571.704 1195H570.204V1196.5H571.704V1195ZM571.704 1105.4V1103.9H570.204V1105.4H571.704ZM593.72 1105.4H595.22V1103.9H593.72V1105.4ZM593.72 1140.22H592.22V1141.72H593.72V1140.22ZM629.944 1140.22V1141.72H631.444V1140.22H629.944ZM629.944 1105.4V1103.9H628.444V1105.4H629.944ZM651.96 1105.4H653.46V1103.9H651.96V1105.4ZM651.96 1195V1196.5H653.46V1195H651.96ZM629.944 1195H628.444V1196.5H629.944V1195ZM629.944 1159.54H631.444V1158.04H629.944V1159.54ZM593.72 1159.54V1158.04H592.22V1159.54H593.72ZM593.72 1195V1196.5H595.22V1195H593.72ZM573.204 1195V1105.4H570.204V1195H573.204ZM571.704 1106.9H593.72V1103.9H571.704V1106.9ZM592.22 1105.4V1140.22H595.22V1105.4H592.22ZM593.72 1141.72H629.944V1138.72H593.72V1141.72ZM631.444 1140.22V1105.4H628.444V1140.22H631.444ZM629.944 1106.9H651.96V1103.9H629.944V1106.9ZM650.46 1105.4V1195H653.46V1105.4H650.46ZM651.96 1193.5H629.944V1196.5H651.96V1193.5ZM631.444 1195V1159.54H628.444V1195H631.444ZM629.944 1158.04H593.72V1161.04H629.944V1158.04ZM592.22 1159.54V1195H595.22V1159.54H592.22ZM593.72 1193.5H571.704V1196.5H593.72V1193.5ZM678.673 1193.21L677.896 1194.49L677.916 1194.5L677.936 1194.51L678.673 1193.21ZM670.993 1185.27L669.679 1185.99L669.683 1186L669.687 1186.01L670.993 1185.27ZM668.177 1128.95V1127.45H666.677V1128.95H668.177ZM688.913 1128.95H690.413V1127.45H688.913V1128.95ZM691.857 1176.44L690.715 1177.41L690.734 1177.44L690.755 1177.46L691.857 1176.44ZM705.937 1178.49L706.582 1179.84L706.595 1179.84L706.608 1179.83L705.937 1178.49ZM710.929 1174.26L712.116 1175.18L712.429 1174.78V1174.26H710.929ZM710.929 1128.95V1127.45H709.429V1128.95H710.929ZM731.665 1128.95H733.165V1127.45H731.665V1128.95ZM731.665 1195V1196.5H733.165V1195H731.665ZM710.929 1195H709.429V1196.5H710.929V1195ZM710.929 1184.25H712.429V1179.29L709.681 1183.42L710.929 1184.25ZM701.713 1193.08L702.447 1194.39L702.457 1194.38L701.713 1193.08ZM690.065 1194.52C686.026 1194.52 682.488 1193.64 679.41 1191.9L677.936 1194.51C681.514 1196.53 685.571 1197.52 690.065 1197.52V1194.52ZM679.45 1191.92C676.43 1190.1 674.051 1187.64 672.299 1184.54L669.687 1186.01C671.69 1189.56 674.431 1192.39 677.896 1194.49L679.45 1191.92ZM672.307 1184.55C670.568 1181.39 669.677 1177.72 669.677 1173.5H666.677C666.677 1178.15 667.663 1182.33 669.679 1185.99L672.307 1184.55ZM669.677 1173.5V1128.95H666.677V1173.5H669.677ZM668.177 1130.45H688.913V1127.45H668.177V1130.45ZM687.413 1128.95V1167.48H690.413V1128.95H687.413ZM687.413 1167.48C687.413 1171.43 688.475 1174.78 690.715 1177.41L692.999 1175.47C691.314 1173.49 690.413 1170.87 690.413 1167.48H687.413ZM690.755 1177.46C693.117 1180.02 696.222 1181.27 699.921 1181.27V1178.27C696.964 1178.27 694.693 1177.3 692.959 1175.42L690.755 1177.46ZM699.921 1181.27C702.336 1181.27 704.566 1180.8 706.582 1179.84L705.292 1177.13C703.724 1177.88 701.943 1178.27 699.921 1178.27V1181.27ZM706.608 1179.83C708.712 1178.78 710.545 1177.21 712.116 1175.18L709.742 1173.35C708.411 1175.07 706.917 1176.32 705.266 1177.15L706.608 1179.83ZM712.429 1174.26V1128.95H709.429V1174.26H712.429ZM710.929 1130.45H731.665V1127.45H710.929V1130.45ZM730.165 1128.95V1195H733.165V1128.95H730.165ZM731.665 1193.5H710.929V1196.5H731.665V1193.5ZM712.429 1195V1184.25H709.429V1195H712.429ZM709.681 1183.42C707.235 1187.09 704.328 1189.86 700.969 1191.78L702.457 1194.38C706.266 1192.21 709.503 1189.09 712.177 1185.08L709.681 1183.42ZM700.979 1191.77C697.719 1193.6 694.092 1194.52 690.065 1194.52V1197.52C694.572 1197.52 698.71 1196.48 702.447 1194.39L700.979 1191.77ZM747.814 1195H746.314V1196.5H747.814V1195ZM747.814 1128.95V1127.45H746.314V1128.95H747.814ZM768.55 1128.95H770.05V1127.45H768.55V1128.95ZM768.55 1139.7H767.05V1144.66L769.798 1140.54L768.55 1139.7ZM777.638 1131L778.372 1132.31L778.382 1132.3L777.638 1131ZM800.678 1130.87L799.901 1132.16L799.921 1132.17L799.941 1132.18L800.678 1130.87ZM808.486 1138.81L807.172 1139.53L807.176 1139.54L807.18 1139.54L808.486 1138.81ZM811.302 1195V1196.5H812.802V1195H811.302ZM790.566 1195H789.066V1196.5H790.566V1195ZM787.494 1147.51L786.37 1148.51L786.381 1148.52L786.392 1148.53L787.494 1147.51ZM773.414 1145.59L774.059 1146.95L774.072 1146.94L774.085 1146.93L773.414 1145.59ZM768.55 1149.69L767.363 1148.77L767.05 1149.18V1149.69H768.55ZM768.55 1195V1196.5H770.05V1195H768.55ZM749.314 1195V1128.95H746.314V1195H749.314ZM747.814 1130.45H768.55V1127.45H747.814V1130.45ZM767.05 1128.95V1139.7H770.05V1128.95H767.05ZM769.798 1140.54C772.247 1136.86 775.109 1134.14 778.372 1132.31L776.904 1129.69C773.17 1131.79 769.973 1134.86 767.302 1138.87L769.798 1140.54ZM778.382 1132.3C781.732 1130.39 785.399 1129.43 789.414 1129.43V1126.43C784.895 1126.43 780.712 1127.52 776.894 1129.7L778.382 1132.3ZM789.414 1129.43C793.442 1129.43 796.921 1130.35 799.901 1132.16L801.455 1129.59C797.949 1127.47 793.919 1126.43 789.414 1126.43V1129.43ZM799.941 1132.18C803.021 1133.92 805.426 1136.36 807.172 1139.53L809.8 1138.09C807.791 1134.43 804.991 1131.58 801.415 1129.57L799.941 1132.18ZM807.18 1139.54C808.911 1142.61 809.802 1146.23 809.802 1150.46H812.802C812.802 1145.8 811.816 1141.66 809.792 1138.07L807.18 1139.54ZM809.802 1150.46V1195H812.802V1150.46H809.802ZM811.302 1193.5H790.566V1196.5H811.302V1193.5ZM792.066 1195V1156.47H789.066V1195H792.066ZM792.066 1156.47C792.066 1152.44 790.958 1149.05 788.596 1146.49L786.392 1148.53C788.126 1150.41 789.066 1153 789.066 1156.47H792.066ZM788.617 1146.52C786.333 1143.94 783.257 1142.68 779.558 1142.68V1145.68C782.515 1145.68 784.729 1146.65 786.37 1148.51L788.617 1146.52ZM779.558 1142.68C777.12 1142.68 774.841 1143.2 772.743 1144.25L774.085 1146.93C775.742 1146.11 777.559 1145.68 779.558 1145.68V1142.68ZM772.769 1144.24C770.727 1145.21 768.93 1146.74 767.363 1148.77L769.737 1150.61C771.072 1148.88 772.517 1147.68 774.059 1146.95L772.769 1144.24ZM767.05 1149.69V1195H770.05V1149.69H767.05ZM768.55 1193.5H747.814V1196.5H768.55V1193.5ZM839.784 1190.9L838.784 1192.02L839.784 1190.9ZM833.768 1144.95H835.268V1143.45H833.768V1144.95ZM820.968 1144.95H819.468V1146.45H820.968V1144.95ZM820.968 1128.95V1127.45H819.468V1128.95H820.968ZM833.768 1128.95V1130.45H835.268V1128.95H833.768ZM833.768 1110.65L833.469 1109.18L832.268 1109.42V1110.65H833.768ZM854.504 1106.42H856.004V1104.59L854.205 1104.95L854.504 1106.42ZM854.504 1128.95H853.004V1130.45H854.504V1128.95ZM872.168 1128.95H873.668V1127.45H872.168V1128.95ZM872.168 1144.95V1146.45H873.668V1144.95H872.168ZM854.504 1144.95V1143.45H853.004V1144.95H854.504ZM856.424 1177.08L855.401 1178.18L855.418 1178.19L855.436 1178.21L856.424 1177.08ZM871.656 1177.46H873.156V1175.46L871.236 1176.02L871.656 1177.46ZM871.656 1194.23L872.111 1195.66L873.156 1195.33V1194.23H871.656ZM864.744 1195.64L864.558 1194.15L864.535 1194.15L864.512 1194.16L864.744 1195.64ZM857.448 1194.78C849.89 1194.78 844.419 1193.03 840.784 1189.79L838.784 1192.02C843.17 1195.94 849.475 1197.78 857.448 1197.78V1194.78ZM840.784 1189.79C837.18 1186.57 835.268 1181.74 835.268 1175.03H832.268C832.268 1182.32 834.366 1188.07 838.784 1192.02L840.784 1189.79ZM835.268 1175.03V1144.95H832.268V1175.03H835.268ZM833.768 1143.45H820.968V1146.45H833.768V1143.45ZM822.468 1144.95V1128.95H819.468V1144.95H822.468ZM820.968 1130.45H833.768V1127.45H820.968V1130.45ZM835.268 1128.95V1110.65H832.268V1128.95H835.268ZM834.067 1112.12L854.803 1107.89L854.205 1104.95L833.469 1109.18L834.067 1112.12ZM853.004 1106.42V1128.95H856.004V1106.42H853.004ZM854.504 1130.45H872.168V1127.45H854.504V1130.45ZM870.668 1128.95V1144.95H873.668V1128.95H870.668ZM872.168 1143.45H854.504V1146.45H872.168V1143.45ZM853.004 1144.95V1170.94H856.004V1144.95H853.004ZM853.004 1170.94C853.004 1173.99 853.667 1176.56 855.401 1178.18L857.448 1175.98C856.621 1175.21 856.004 1173.68 856.004 1170.94H853.004ZM855.436 1178.21C857.216 1179.77 859.932 1180.37 863.208 1180.37V1177.37C860.169 1177.37 858.363 1176.78 857.412 1175.95L855.436 1178.21ZM863.208 1180.37C864.474 1180.37 865.74 1180.28 867.004 1180.1L866.58 1177.13C865.455 1177.29 864.331 1177.37 863.208 1177.37V1180.37ZM867.004 1180.1C868.303 1179.92 870.003 1179.51 872.076 1178.9L871.236 1176.02C869.213 1176.61 867.671 1176.98 866.58 1177.13L867.004 1180.1ZM870.156 1177.46V1194.23H873.156V1177.46H870.156ZM871.201 1192.8C869.438 1193.36 867.23 1193.82 864.558 1194.15L864.93 1197.13C867.719 1196.78 870.119 1196.3 872.111 1195.66L871.201 1192.8ZM864.512 1194.16C861.837 1194.58 859.485 1194.78 857.448 1194.78V1197.78C859.678 1197.78 862.189 1197.56 864.976 1197.12L864.512 1194.16Z" fill="#A38BE5"/>
</g>
<g filter="url(#filter1_d_20_11)">
<path d="M247.505 747.505C110.812 610.832 110.796 389.224 247.47 252.531L252.495 247.505C389.168 110.812 610.776 110.796 747.469 247.47L752.495 252.495C889.188 389.168 889.204 610.776 752.53 747.469L500.036 1000L247.505 747.505Z" fill="#A38BE5"/>
</g>
<circle cx="500.002" cy="500.001" r="294.63" fill="#C1DFFF"/>
<circle cx="500.001" cy="500" r="223.918" fill="white"/>
<circle cx="500.002" cy="500.001" r="164.992" fill="#632B00"/>
<rect x="688.25" y="464.333" width="106.066" height="68.3537" fill="white"/>
<circle cx="502.047" cy="497.331" r="322.553" stroke="#A38BE5" stroke-width="62"/>
<defs>
<filter id="filter0_d_20_11" x="130.135" y="1095.93" width="746.033" height="108.48" filterUnits="userSpaceOnUse" color-interpolation-filters="sRGB">
<feFlood flood-opacity="0" result="BackgroundImageFix"/>
<feColorMatrix in="SourceAlpha" type="matrix" values="0 0 0 0 0 0 0 0 0 0 0 0 0 0 0 0 0 0 127 0" result="hardAlpha"/>
<feOffset dy="4"/>
<feGaussianBlur stdDeviation="2"/>
<feComposite in2="hardAlpha" operator="out"/>
<feColorMatrix type="matrix" values="0 0 0 0 0 0 0 0 0 0 0 0 0 0 0 0 0 0 0.25 0"/>
<feBlend mode="normal" in2="BackgroundImageFix" result="effect1_dropShadow_20_11"/>
<feBlend mode="normal" in="SourceGraphic" in2="effect1_dropShadow_20_11" result="shape"/>
</filter>
<filter id="filter1_d_20_11" x="140.975" y="144.975" width="718.051" height="863.025" filterUnits="userSpaceOnUse" color-interpolation-filters="sRGB">
<feFlood flood-opacity="0" result="BackgroundImageFix"/>
<feColorMatrix in="SourceAlpha" type="matrix" values="0 0 0 0 0 0 0 0 0 0 0 0 0 0 0 0 0 0 127 0" result="hardAlpha"/>
<feOffset dy="4"/>
<feGaussianBlur stdDeviation="2"/>
<feComposite in2="hardAlpha" operator="out"/>
<feColorMatrix type="matrix" values="0 0 0 0 0 0 0 0 0 0 0 0 0 0 0 0 0 0 0.25 0"/>
<feBlend mode="normal" in2="BackgroundImageFix" result="effect1_dropShadow_20_11"/>
<feBlend mode="normal" in="SourceGraphic" in2="effect1_dropShadow_20_11" result="shape"/>
</filter>
</defs>
</svg>
